<?xml version="1.0" encoding="utf-8" standalone="no"?>
<!DOCTYPE svg PUBLIC "-//W3C//DTD SVG 1.1//EN"
  "http://www.w3.org/Graphics/SVG/1.1/DTD/svg11.dtd">
<svg xmlns:xlink="http://www.w3.org/1999/xlink" width="460.8pt" height="345.6pt" viewBox="0 0 460.8 345.6" xmlns="http://www.w3.org/2000/svg" version="1.1">
 <metadata>
  <rdf:RDF xmlns:dc="http://purl.org/dc/elements/1.1/" xmlns:cc="http://creativecommons.org/ns#" xmlns:rdf="http://www.w3.org/1999/02/22-rdf-syntax-ns#">
   <cc:Work>
    <dc:type rdf:resource="http://purl.org/dc/dcmitype/StillImage"/>
    <dc:date>2023-06-28T19:20:11.048825</dc:date>
    <dc:format>image/svg+xml</dc:format>
    <dc:creator>
     <cc:Agent>
      <dc:title>Matplotlib v3.7.1, https://matplotlib.org/</dc:title>
     </cc:Agent>
    </dc:creator>
   </cc:Work>
  </rdf:RDF>
 </metadata>
 <defs>
  <style type="text/css">*{stroke-linejoin: round; stroke-linecap: butt}</style>
 </defs>
 <g id="figure_1">
  <g id="patch_1">
   <path d="M 0 345.6 
L 460.8 345.6 
L 460.8 0 
L 0 0 
z
" style="fill: #ffffff"/>
  </g>
  <g id="axes_1">
   <g id="patch_2">
    <path d="M 57.6 307.584 
L 414.72 307.584 
L 414.72 41.472 
L 57.6 41.472 
z
" style="fill: #ffffff"/>
   </g>
   <g id="matplotlib.axis_1">
    <g id="xtick_1">
     <g id="line2d_1">
      <defs>
       <path id="ma799b5f9cc" d="M 0 0 
L 0 3.5 
" style="stroke: #000000; stroke-width: 0.8"/>
      </defs>
      <g>
       <use xlink:href="#ma799b5f9cc" x="57.6" y="307.584" style="stroke: #000000; stroke-width: 0.8"/>
      </g>
     </g>
     <g id="text_1">
      <text style="font: 7px 'Helvetica'; text-anchor: middle" x="57.6" y="319.605406" transform="rotate(-0 57.6 319.605406)">0.0</text>
     </g>
    </g>
    <g id="xtick_2">
     <g id="line2d_2">
      <g>
       <use xlink:href="#ma799b5f9cc" x="102.24" y="307.584" style="stroke: #000000; stroke-width: 0.8"/>
      </g>
     </g>
     <g id="text_2">
      <text style="font: 7px 'Helvetica'; text-anchor: middle" x="102.24" y="319.605406" transform="rotate(-0 102.24 319.605406)">2.5</text>
     </g>
    </g>
    <g id="xtick_3">
     <g id="line2d_3">
      <g>
       <use xlink:href="#ma799b5f9cc" x="146.88" y="307.584" style="stroke: #000000; stroke-width: 0.8"/>
      </g>
     </g>
     <g id="text_3">
      <text style="font: 7px 'Helvetica'; text-anchor: middle" x="146.88" y="319.605406" transform="rotate(-0 146.88 319.605406)">5.0</text>
     </g>
    </g>
    <g id="xtick_4">
     <g id="line2d_4">
      <g>
       <use xlink:href="#ma799b5f9cc" x="191.52" y="307.584" style="stroke: #000000; stroke-width: 0.8"/>
      </g>
     </g>
     <g id="text_4">
      <text style="font: 7px 'Helvetica'; text-anchor: middle" x="191.52" y="319.605406" transform="rotate(-0 191.52 319.605406)">7.5</text>
     </g>
    </g>
    <g id="xtick_5">
     <g id="line2d_5">
      <g>
       <use xlink:href="#ma799b5f9cc" x="236.16" y="307.584" style="stroke: #000000; stroke-width: 0.8"/>
      </g>
     </g>
     <g id="text_5">
      <text style="font: 7px 'Helvetica'; text-anchor: middle" x="236.16" y="319.605406" transform="rotate(-0 236.16 319.605406)">10.0</text>
     </g>
    </g>
    <g id="xtick_6">
     <g id="line2d_6">
      <g>
       <use xlink:href="#ma799b5f9cc" x="280.8" y="307.584" style="stroke: #000000; stroke-width: 0.8"/>
      </g>
     </g>
     <g id="text_6">
      <text style="font: 7px 'Helvetica'; text-anchor: middle" x="280.8" y="319.605406" transform="rotate(-0 280.8 319.605406)">12.5</text>
     </g>
    </g>
    <g id="xtick_7">
     <g id="line2d_7">
      <g>
       <use xlink:href="#ma799b5f9cc" x="325.44" y="307.584" style="stroke: #000000; stroke-width: 0.8"/>
      </g>
     </g>
     <g id="text_7">
      <text style="font: 7px 'Helvetica'; text-anchor: middle" x="325.44" y="319.605406" transform="rotate(-0 325.44 319.605406)">15.0</text>
     </g>
    </g>
    <g id="xtick_8">
     <g id="line2d_8">
      <g>
       <use xlink:href="#ma799b5f9cc" x="370.08" y="307.584" style="stroke: #000000; stroke-width: 0.8"/>
      </g>
     </g>
     <g id="text_8">
      <text style="font: 7px 'Helvetica'; text-anchor: middle" x="370.08" y="319.605406" transform="rotate(-0 370.08 319.605406)">17.5</text>
     </g>
    </g>
    <g id="xtick_9">
     <g id="line2d_9">
      <g>
       <use xlink:href="#ma799b5f9cc" x="414.72" y="307.584" style="stroke: #000000; stroke-width: 0.8"/>
      </g>
     </g>
     <g id="text_9">
      <text style="font: 7px 'Helvetica'; text-anchor: middle" x="414.72" y="319.605406" transform="rotate(-0 414.72 319.605406)">20.0</text>
     </g>
    </g>
    <g id="text_10">
     <text style="font: 10px 'Helvetica'; text-anchor: middle" x="236.16" y="332.355094" transform="rotate(-0 236.16 332.355094)">Energy (keV)</text>
    </g>
   </g>
   <g id="matplotlib.axis_2">
    <g id="text_11">
     <text style="font: 10px 'Helvetica'; text-anchor: middle" x="51.515625" y="174.528" transform="rotate(-90 51.515625 174.528)">Counts</text>
    </g>
   </g>
   <g id="line2d_10">
    <path d="M 58.268707 284.363699 
L 59.697187 293.978224 
L 61.125667 265.790391 
L 62.554147 177.267405 
L 63.982627 280.86399 
L 65.411107 285.394192 
L 66.839587 279.800445 
L 68.268067 291.611402 
L 69.696547 292.701735 
L 71.125027 293.383399 
L 72.553507 293.706218 
L 73.981987 291.354576 
L 75.410467 293.47882 
L 76.838947 294.194249 
L 81.124387 294.66542 
L 82.552867 294.642358 
L 83.981347 293.89233 
L 85.409827 294.530463 
L 86.838307 294.775816 
L 89.695267 294.619684 
L 91.123747 292.354471 
L 92.552227 291.260606 
L 93.980707 293.68421 
L 95.409187 294.605879 
L 98.266147 294.708238 
L 101.123107 294.964477 
L 102.551587 294.894909 
L 103.980067 293.52316 
L 105.408547 293.919439 
L 106.837027 294.845415 
L 108.265507 294.865372 
L 111.122467 295.143679 
L 123.978787 295.246456 
L 141.120547 295.302417 
L 155.405347 295.322139 
L 169.690147 295.332513 
L 172.547107 295.043559 
L 175.404067 295.319814 
L 186.831907 295.369103 
L 196.831267 295.333771 
L 198.259747 295.27857 
L 199.688227 294.864145 
L 201.116707 293.851463 
L 202.545187 294.099776 
L 203.973667 294.967082 
L 205.402147 295.207649 
L 208.259107 295.361644 
L 212.544547 295.380675 
L 213.973027 295.282269 
L 215.401507 294.782334 
L 216.829987 294.086004 
L 218.258467 294.433314 
L 219.686947 295.061923 
L 222.543907 295.330235 
L 228.257827 295.40966 
L 238.257187 295.386211 
L 241.114147 295.197447 
L 242.542627 294.987363 
L 248.256547 295.215735 
L 251.113507 295.389425 
L 263.969827 295.437547 
L 319.680547 295.468794 
L 358.249507 295.476991 
L 413.960227 295.485258 
L 413.960227 295.485258 
" clip-path="url(#p23d6d9bbe4)" style="fill: none; stroke: #000000; stroke-linecap: square"/>
   </g>
   <g id="line2d_11">
    <path d="M 58.268707 261.573536 
L 59.697187 271.970903 
L 61.125667 244.240707 
L 62.554147 152.742221 
L 63.982627 260.079166 
L 65.411107 263.765013 
L 66.839587 258.4149 
L 68.268067 269.954996 
L 69.696547 271.08174 
L 71.125027 271.712049 
L 72.553507 271.943679 
L 73.981987 270.20685 
L 75.410467 271.841835 
L 76.838947 272.412139 
L 81.124387 272.747219 
L 82.552867 272.762718 
L 83.981347 272.252269 
L 85.409827 272.710567 
L 86.838307 272.875981 
L 89.695267 272.760313 
L 91.123747 271.687246 
L 92.552227 271.142806 
L 93.980707 272.396506 
L 95.409187 272.860678 
L 96.837667 272.818188 
L 98.266147 271.94195 
L 99.694627 272.144632 
L 101.123107 272.852519 
L 102.551587 272.843284 
L 103.980067 271.518989 
L 105.408547 271.936998 
L 106.837027 272.893583 
L 108.265507 272.908548 
L 111.122467 273.181101 
L 119.693347 273.243758 
L 145.405987 273.319044 
L 198.259747 273.319474 
L 199.688227 272.990855 
L 201.116707 272.215908 
L 202.545187 272.412961 
L 203.973667 273.066226 
L 205.402147 273.251747 
L 209.687587 273.386191 
L 213.973027 273.334299 
L 216.829987 272.682937 
L 218.258467 272.871549 
L 219.686947 273.216949 
L 222.543907 273.360864 
L 229.686307 273.409317 
L 239.685667 273.365448 
L 243.971107 273.209572 
L 249.685027 273.372875 
L 259.684387 273.422395 
L 316.823587 273.447399 
L 413.960227 273.4637 
L 413.960227 273.4637 
" clip-path="url(#p23d6d9bbe4)" style="fill: none; stroke: #0000c9; stroke-linecap: square"/>
   </g>
   <g id="line2d_12">
    <path d="M 58.268707 240.245955 
L 59.697187 249.87624 
L 61.125667 220.135731 
L 62.554147 129.192616 
L 63.982627 237.504787 
L 65.411107 241.275263 
L 66.839587 232.463378 
L 68.268067 247.260973 
L 69.696547 248.646601 
L 71.125027 249.384109 
L 72.553507 249.806818 
L 73.981987 247.948701 
L 75.410467 249.714024 
L 76.838947 250.326091 
L 81.124387 250.680923 
L 82.552867 250.703834 
L 83.981347 250.168801 
L 85.409827 250.640338 
L 86.838307 250.808506 
L 88.266787 250.592637 
L 89.695267 250.649496 
L 91.123747 249.683901 
L 92.552227 248.528741 
L 93.980707 248.945393 
L 95.409187 250.526391 
L 96.837667 250.705595 
L 99.694627 250.904235 
L 101.123107 251.008701 
L 102.551587 250.945994 
L 103.980067 249.753447 
L 105.408547 250.095462 
L 106.837027 250.894797 
L 108.265507 250.911843 
L 111.122467 251.155722 
L 121.121827 251.216946 
L 133.978147 251.265257 
L 152.548387 251.294245 
L 155.405347 251.263815 
L 161.119267 251.318816 
L 171.118627 251.208131 
L 172.547107 251.155571 
L 175.404067 251.318597 
L 198.259747 251.289228 
L 199.688227 250.94268 
L 201.116707 250.154025 
L 202.545187 250.326936 
L 203.973667 251.015067 
L 205.402147 251.21564 
L 209.687587 251.356698 
L 213.973027 251.302938 
L 215.401507 251.052101 
L 216.829987 250.674181 
L 218.258467 250.857802 
L 219.686947 251.188811 
L 222.543907 251.338345 
L 231.114787 251.378069 
L 239.685667 251.342552 
L 243.971107 251.202578 
L 251.113507 251.373584 
L 272.540707 251.384541 
L 279.683107 251.396698 
L 328.251427 251.423362 
L 413.960227 251.438734 
L 413.960227 251.438734 
" clip-path="url(#p23d6d9bbe4)" style="fill: none; stroke: #00aaa3; stroke-linecap: square"/>
   </g>
   <g id="line2d_13">
    <path d="M 58.268707 217.658687 
L 59.697187 227.756137 
L 61.125667 195.829306 
L 62.554147 97.266954 
L 63.982627 218.245004 
L 65.411107 219.323743 
L 66.839587 214.412899 
L 68.268067 226.180215 
L 69.696547 227.329786 
L 71.125027 227.900502 
L 72.553507 228.290954 
L 73.981987 228.153225 
L 75.410467 228.504127 
L 78.267427 228.741592 
L 82.552867 228.864847 
L 83.981347 228.622649 
L 85.409827 228.884068 
L 86.838307 228.980726 
L 88.266787 228.851364 
L 89.695267 228.939424 
L 92.552227 228.763314 
L 95.409187 229.072936 
L 102.551587 229.122101 
L 103.980067 228.820057 
L 111.122467 229.212207 
L 169.690147 229.332082 
L 175.404067 229.33282 
L 192.545827 229.348571 
L 198.259747 229.340556 
L 199.688227 229.240575 
L 201.116707 229.017276 
L 202.545187 229.079509 
L 203.973667 229.264363 
L 208.259107 229.355039 
L 215.401507 229.295276 
L 216.829987 229.226806 
L 223.972387 229.369436 
L 333.965347 229.407326 
L 413.960227 229.41663 
L 413.960227 229.41663 
" clip-path="url(#p23d6d9bbe4)" style="fill: none; stroke: #00d700; stroke-linecap: square"/>
   </g>
   <g id="line2d_14">
    <path d="M 58.268707 195.813737 
L 59.697187 205.810935 
L 61.125667 175.506751 
L 62.554147 80.521395 
L 63.982627 195.635795 
L 65.411107 197.743105 
L 66.839587 191.485536 
L 68.268067 203.798987 
L 69.696547 204.911807 
L 71.125027 205.594783 
L 72.553507 206.012311 
L 73.981987 205.302893 
L 75.410467 206.14098 
L 76.838947 206.453605 
L 81.124387 206.700167 
L 82.552867 206.722817 
L 83.981347 206.279224 
L 85.409827 206.677233 
L 86.838307 206.825861 
L 88.266787 206.646282 
L 89.695267 206.692016 
L 91.123747 205.795074 
L 92.552227 205.2433 
L 93.980707 206.2279 
L 95.409187 206.78488 
L 102.551587 206.931164 
L 103.980067 205.722432 
L 105.408547 206.061637 
L 106.837027 206.868672 
L 108.265507 206.880431 
L 111.122467 207.126439 
L 122.550307 207.182717 
L 171.118627 207.158412 
L 172.547107 207.095725 
L 175.404067 207.271364 
L 195.402787 207.306668 
L 198.259747 207.267973 
L 199.688227 207.085609 
L 201.116707 206.64914 
L 202.545187 206.745244 
L 203.973667 207.127352 
L 206.830627 207.277363 
L 212.544547 207.314025 
L 213.973027 207.272128 
L 216.829987 206.744311 
L 218.258467 206.897465 
L 219.686947 207.173781 
L 222.543907 207.299982 
L 232.543267 207.337842 
L 241.114147 207.243589 
L 243.971107 207.170341 
L 251.113507 207.328166 
L 272.540707 207.339068 
L 282.540067 207.353923 
L 315.395107 207.371379 
L 403.960867 207.38843 
L 413.960227 207.389081 
L 413.960227 207.389081 
" clip-path="url(#p23d6d9bbe4)" style="fill: none; stroke: #f5df00; stroke-linecap: square"/>
   </g>
   <g id="line2d_15">
    <path d="M 58.268707 173.468525 
L 59.697187 183.758949 
L 61.125667 152.584444 
L 62.554147 53.568 
L 63.982627 174.382536 
L 65.411107 175.918202 
L 66.839587 170.201196 
L 68.268067 182.052279 
L 69.696547 183.191472 
L 71.125027 183.812342 
L 72.553507 184.211698 
L 73.981987 183.995548 
L 75.410467 184.414002 
L 76.838947 184.596466 
L 82.552867 184.807794 
L 83.981347 184.542914 
L 85.409827 184.806861 
L 86.838307 184.903439 
L 88.266787 184.758511 
L 89.695267 184.842185 
L 92.552227 184.582955 
L 95.409187 185.000345 
L 102.551587 185.059584 
L 103.980067 184.668175 
L 105.408547 184.788016 
L 106.837027 185.064554 
L 152.548387 185.258766 
L 156.833827 185.262883 
L 171.118627 185.240287 
L 175.404067 185.283233 
L 198.259747 185.289102 
L 199.688227 185.181538 
L 201.116707 184.934396 
L 202.545187 184.987348 
L 203.973667 185.202354 
L 208.259107 185.306653 
L 215.401507 185.237437 
L 216.829987 185.142517 
L 225.400867 185.318928 
L 316.823587 185.353338 
L 413.960227 185.366412 
L 413.960227 185.366412 
" clip-path="url(#p23d6d9bbe4)" style="fill: none; stroke: #dc0000; stroke-linecap: square"/>
   </g>
   <g id="patch_3">
    <path d="M 57.6 307.584 
L 57.6 41.472 
" style="fill: none; stroke: #000000; stroke-width: 0.8; stroke-linejoin: miter; stroke-linecap: square"/>
   </g>
   <g id="patch_4">
    <path d="M 57.6 307.584 
L 414.72 307.584 
" style="fill: none; stroke: #000000; stroke-width: 0.8; stroke-linejoin: miter; stroke-linecap: square"/>
   </g>
  </g>
 </g>
 <defs>
  <clipPath id="p23d6d9bbe4">
   <rect x="57.6" y="41.472" width="357.12" height="266.112"/>
  </clipPath>
 </defs>
</svg>
