<?xml version="1.0" encoding="utf-8" standalone="no"?>
<!DOCTYPE svg PUBLIC "-//W3C//DTD SVG 1.1//EN"
  "http://www.w3.org/Graphics/SVG/1.1/DTD/svg11.dtd">
<svg xmlns:xlink="http://www.w3.org/1999/xlink" width="460.8pt" height="345.6pt" viewBox="0 0 460.8 345.6" xmlns="http://www.w3.org/2000/svg" version="1.1">
 <metadata>
  <rdf:RDF xmlns:dc="http://purl.org/dc/elements/1.1/" xmlns:cc="http://creativecommons.org/ns#" xmlns:rdf="http://www.w3.org/1999/02/22-rdf-syntax-ns#">
   <cc:Work>
    <dc:type rdf:resource="http://purl.org/dc/dcmitype/StillImage"/>
    <dc:date>2023-06-22T16:48:26.070050</dc:date>
    <dc:format>image/svg+xml</dc:format>
    <dc:creator>
     <cc:Agent>
      <dc:title>Matplotlib v3.7.1, https://matplotlib.org/</dc:title>
     </cc:Agent>
    </dc:creator>
   </cc:Work>
  </rdf:RDF>
 </metadata>
 <defs>
  <style type="text/css">*{stroke-linejoin: round; stroke-linecap: butt}</style>
 </defs>
 <g id="figure_1">
  <g id="patch_1">
   <path d="M 0 345.6 
L 460.8 345.6 
L 460.8 0 
L 0 0 
z
" style="fill: #ffffff"/>
  </g>
  <g id="axes_1">
   <g id="patch_2">
    <path d="M 57.6 307.584 
L 414.72 307.584 
L 414.72 41.472 
L 57.6 41.472 
z
" style="fill: #ffffff"/>
   </g>
   <g id="matplotlib.axis_1">
    <g id="xtick_1">
     <g id="line2d_1">
      <defs>
       <path id="mb892dc8201" d="M 0 0 
L 0 3.5 
" style="stroke: #000000; stroke-width: 0.8"/>
      </defs>
      <g>
       <use xlink:href="#mb892dc8201" x="57.6" y="307.584" style="stroke: #000000; stroke-width: 0.8"/>
      </g>
     </g>
     <g id="text_1">
      <!-- 0.0 -->
      <g transform="translate(49.648438 322.182437) scale(0.1 -0.1)">
       <defs>
        <path id="DejaVuSans-30" d="M 2034 4250 
Q 1547 4250 1301 3770 
Q 1056 3291 1056 2328 
Q 1056 1369 1301 889 
Q 1547 409 2034 409 
Q 2525 409 2770 889 
Q 3016 1369 3016 2328 
Q 3016 3291 2770 3770 
Q 2525 4250 2034 4250 
z
M 2034 4750 
Q 2819 4750 3233 4129 
Q 3647 3509 3647 2328 
Q 3647 1150 3233 529 
Q 2819 -91 2034 -91 
Q 1250 -91 836 529 
Q 422 1150 422 2328 
Q 422 3509 836 4129 
Q 1250 4750 2034 4750 
z
" transform="scale(0.015625)"/>
        <path id="DejaVuSans-2e" d="M 684 794 
L 1344 794 
L 1344 0 
L 684 0 
L 684 794 
z
" transform="scale(0.015625)"/>
       </defs>
       <use xlink:href="#DejaVuSans-30"/>
       <use xlink:href="#DejaVuSans-2e" x="63.623047"/>
       <use xlink:href="#DejaVuSans-30" x="95.410156"/>
      </g>
     </g>
    </g>
    <g id="xtick_2">
     <g id="line2d_2">
      <g>
       <use xlink:href="#mb892dc8201" x="102.24" y="307.584" style="stroke: #000000; stroke-width: 0.8"/>
      </g>
     </g>
     <g id="text_2">
      <!-- 2.5 -->
      <g transform="translate(94.288438 322.182437) scale(0.1 -0.1)">
       <defs>
        <path id="DejaVuSans-32" d="M 1228 531 
L 3431 531 
L 3431 0 
L 469 0 
L 469 531 
Q 828 903 1448 1529 
Q 2069 2156 2228 2338 
Q 2531 2678 2651 2914 
Q 2772 3150 2772 3378 
Q 2772 3750 2511 3984 
Q 2250 4219 1831 4219 
Q 1534 4219 1204 4116 
Q 875 4013 500 3803 
L 500 4441 
Q 881 4594 1212 4672 
Q 1544 4750 1819 4750 
Q 2544 4750 2975 4387 
Q 3406 4025 3406 3419 
Q 3406 3131 3298 2873 
Q 3191 2616 2906 2266 
Q 2828 2175 2409 1742 
Q 1991 1309 1228 531 
z
" transform="scale(0.015625)"/>
        <path id="DejaVuSans-35" d="M 691 4666 
L 3169 4666 
L 3169 4134 
L 1269 4134 
L 1269 2991 
Q 1406 3038 1543 3061 
Q 1681 3084 1819 3084 
Q 2600 3084 3056 2656 
Q 3513 2228 3513 1497 
Q 3513 744 3044 326 
Q 2575 -91 1722 -91 
Q 1428 -91 1123 -41 
Q 819 9 494 109 
L 494 744 
Q 775 591 1075 516 
Q 1375 441 1709 441 
Q 2250 441 2565 725 
Q 2881 1009 2881 1497 
Q 2881 1984 2565 2268 
Q 2250 2553 1709 2553 
Q 1456 2553 1204 2497 
Q 953 2441 691 2322 
L 691 4666 
z
" transform="scale(0.015625)"/>
       </defs>
       <use xlink:href="#DejaVuSans-32"/>
       <use xlink:href="#DejaVuSans-2e" x="63.623047"/>
       <use xlink:href="#DejaVuSans-35" x="95.410156"/>
      </g>
     </g>
    </g>
    <g id="xtick_3">
     <g id="line2d_3">
      <g>
       <use xlink:href="#mb892dc8201" x="146.88" y="307.584" style="stroke: #000000; stroke-width: 0.8"/>
      </g>
     </g>
     <g id="text_3">
      <!-- 5.0 -->
      <g transform="translate(138.928438 322.182437) scale(0.1 -0.1)">
       <use xlink:href="#DejaVuSans-35"/>
       <use xlink:href="#DejaVuSans-2e" x="63.623047"/>
       <use xlink:href="#DejaVuSans-30" x="95.410156"/>
      </g>
     </g>
    </g>
    <g id="xtick_4">
     <g id="line2d_4">
      <g>
       <use xlink:href="#mb892dc8201" x="191.52" y="307.584" style="stroke: #000000; stroke-width: 0.8"/>
      </g>
     </g>
     <g id="text_4">
      <!-- 7.5 -->
      <g transform="translate(183.568438 322.182437) scale(0.1 -0.1)">
       <defs>
        <path id="DejaVuSans-37" d="M 525 4666 
L 3525 4666 
L 3525 4397 
L 1831 0 
L 1172 0 
L 2766 4134 
L 525 4134 
L 525 4666 
z
" transform="scale(0.015625)"/>
       </defs>
       <use xlink:href="#DejaVuSans-37"/>
       <use xlink:href="#DejaVuSans-2e" x="63.623047"/>
       <use xlink:href="#DejaVuSans-35" x="95.410156"/>
      </g>
     </g>
    </g>
    <g id="xtick_5">
     <g id="line2d_5">
      <g>
       <use xlink:href="#mb892dc8201" x="236.16" y="307.584" style="stroke: #000000; stroke-width: 0.8"/>
      </g>
     </g>
     <g id="text_5">
      <!-- 10.0 -->
      <g transform="translate(225.027187 322.182437) scale(0.1 -0.1)">
       <defs>
        <path id="DejaVuSans-31" d="M 794 531 
L 1825 531 
L 1825 4091 
L 703 3866 
L 703 4441 
L 1819 4666 
L 2450 4666 
L 2450 531 
L 3481 531 
L 3481 0 
L 794 0 
L 794 531 
z
" transform="scale(0.015625)"/>
       </defs>
       <use xlink:href="#DejaVuSans-31"/>
       <use xlink:href="#DejaVuSans-30" x="63.623047"/>
       <use xlink:href="#DejaVuSans-2e" x="127.246094"/>
       <use xlink:href="#DejaVuSans-30" x="159.033203"/>
      </g>
     </g>
    </g>
    <g id="xtick_6">
     <g id="line2d_6">
      <g>
       <use xlink:href="#mb892dc8201" x="280.8" y="307.584" style="stroke: #000000; stroke-width: 0.8"/>
      </g>
     </g>
     <g id="text_6">
      <!-- 12.5 -->
      <g transform="translate(269.667188 322.182437) scale(0.1 -0.1)">
       <use xlink:href="#DejaVuSans-31"/>
       <use xlink:href="#DejaVuSans-32" x="63.623047"/>
       <use xlink:href="#DejaVuSans-2e" x="127.246094"/>
       <use xlink:href="#DejaVuSans-35" x="159.033203"/>
      </g>
     </g>
    </g>
    <g id="xtick_7">
     <g id="line2d_7">
      <g>
       <use xlink:href="#mb892dc8201" x="325.44" y="307.584" style="stroke: #000000; stroke-width: 0.8"/>
      </g>
     </g>
     <g id="text_7">
      <!-- 15.0 -->
      <g transform="translate(314.307188 322.182437) scale(0.1 -0.1)">
       <use xlink:href="#DejaVuSans-31"/>
       <use xlink:href="#DejaVuSans-35" x="63.623047"/>
       <use xlink:href="#DejaVuSans-2e" x="127.246094"/>
       <use xlink:href="#DejaVuSans-30" x="159.033203"/>
      </g>
     </g>
    </g>
    <g id="xtick_8">
     <g id="line2d_8">
      <g>
       <use xlink:href="#mb892dc8201" x="370.08" y="307.584" style="stroke: #000000; stroke-width: 0.8"/>
      </g>
     </g>
     <g id="text_8">
      <!-- 17.5 -->
      <g transform="translate(358.947188 322.182437) scale(0.1 -0.1)">
       <use xlink:href="#DejaVuSans-31"/>
       <use xlink:href="#DejaVuSans-37" x="63.623047"/>
       <use xlink:href="#DejaVuSans-2e" x="127.246094"/>
       <use xlink:href="#DejaVuSans-35" x="159.033203"/>
      </g>
     </g>
    </g>
    <g id="xtick_9">
     <g id="line2d_9">
      <g>
       <use xlink:href="#mb892dc8201" x="414.72" y="307.584" style="stroke: #000000; stroke-width: 0.8"/>
      </g>
     </g>
     <g id="text_9">
      <!-- 20.0 -->
      <g transform="translate(403.587188 322.182437) scale(0.1 -0.1)">
       <use xlink:href="#DejaVuSans-32"/>
       <use xlink:href="#DejaVuSans-30" x="63.623047"/>
       <use xlink:href="#DejaVuSans-2e" x="127.246094"/>
       <use xlink:href="#DejaVuSans-30" x="159.033203"/>
      </g>
     </g>
    </g>
    <g id="text_10">
     <!-- Energy (keV) -->
     <g transform="translate(203.952187 335.860562) scale(0.1 -0.1)">
      <defs>
       <path id="DejaVuSans-45" d="M 628 4666 
L 3578 4666 
L 3578 4134 
L 1259 4134 
L 1259 2753 
L 3481 2753 
L 3481 2222 
L 1259 2222 
L 1259 531 
L 3634 531 
L 3634 0 
L 628 0 
L 628 4666 
z
" transform="scale(0.015625)"/>
       <path id="DejaVuSans-6e" d="M 3513 2113 
L 3513 0 
L 2938 0 
L 2938 2094 
Q 2938 2591 2744 2837 
Q 2550 3084 2163 3084 
Q 1697 3084 1428 2787 
Q 1159 2491 1159 1978 
L 1159 0 
L 581 0 
L 581 3500 
L 1159 3500 
L 1159 2956 
Q 1366 3272 1645 3428 
Q 1925 3584 2291 3584 
Q 2894 3584 3203 3211 
Q 3513 2838 3513 2113 
z
" transform="scale(0.015625)"/>
       <path id="DejaVuSans-65" d="M 3597 1894 
L 3597 1613 
L 953 1613 
Q 991 1019 1311 708 
Q 1631 397 2203 397 
Q 2534 397 2845 478 
Q 3156 559 3463 722 
L 3463 178 
Q 3153 47 2828 -22 
Q 2503 -91 2169 -91 
Q 1331 -91 842 396 
Q 353 884 353 1716 
Q 353 2575 817 3079 
Q 1281 3584 2069 3584 
Q 2775 3584 3186 3129 
Q 3597 2675 3597 1894 
z
M 3022 2063 
Q 3016 2534 2758 2815 
Q 2500 3097 2075 3097 
Q 1594 3097 1305 2825 
Q 1016 2553 972 2059 
L 3022 2063 
z
" transform="scale(0.015625)"/>
       <path id="DejaVuSans-72" d="M 2631 2963 
Q 2534 3019 2420 3045 
Q 2306 3072 2169 3072 
Q 1681 3072 1420 2755 
Q 1159 2438 1159 1844 
L 1159 0 
L 581 0 
L 581 3500 
L 1159 3500 
L 1159 2956 
Q 1341 3275 1631 3429 
Q 1922 3584 2338 3584 
Q 2397 3584 2469 3576 
Q 2541 3569 2628 3553 
L 2631 2963 
z
" transform="scale(0.015625)"/>
       <path id="DejaVuSans-67" d="M 2906 1791 
Q 2906 2416 2648 2759 
Q 2391 3103 1925 3103 
Q 1463 3103 1205 2759 
Q 947 2416 947 1791 
Q 947 1169 1205 825 
Q 1463 481 1925 481 
Q 2391 481 2648 825 
Q 2906 1169 2906 1791 
z
M 3481 434 
Q 3481 -459 3084 -895 
Q 2688 -1331 1869 -1331 
Q 1566 -1331 1297 -1286 
Q 1028 -1241 775 -1147 
L 775 -588 
Q 1028 -725 1275 -790 
Q 1522 -856 1778 -856 
Q 2344 -856 2625 -561 
Q 2906 -266 2906 331 
L 2906 616 
Q 2728 306 2450 153 
Q 2172 0 1784 0 
Q 1141 0 747 490 
Q 353 981 353 1791 
Q 353 2603 747 3093 
Q 1141 3584 1784 3584 
Q 2172 3584 2450 3431 
Q 2728 3278 2906 2969 
L 2906 3500 
L 3481 3500 
L 3481 434 
z
" transform="scale(0.015625)"/>
       <path id="DejaVuSans-79" d="M 2059 -325 
Q 1816 -950 1584 -1140 
Q 1353 -1331 966 -1331 
L 506 -1331 
L 506 -850 
L 844 -850 
Q 1081 -850 1212 -737 
Q 1344 -625 1503 -206 
L 1606 56 
L 191 3500 
L 800 3500 
L 1894 763 
L 2988 3500 
L 3597 3500 
L 2059 -325 
z
" transform="scale(0.015625)"/>
       <path id="DejaVuSans-20" transform="scale(0.015625)"/>
       <path id="DejaVuSans-28" d="M 1984 4856 
Q 1566 4138 1362 3434 
Q 1159 2731 1159 2009 
Q 1159 1288 1364 580 
Q 1569 -128 1984 -844 
L 1484 -844 
Q 1016 -109 783 600 
Q 550 1309 550 2009 
Q 550 2706 781 3412 
Q 1013 4119 1484 4856 
L 1984 4856 
z
" transform="scale(0.015625)"/>
       <path id="DejaVuSans-6b" d="M 581 4863 
L 1159 4863 
L 1159 1991 
L 2875 3500 
L 3609 3500 
L 1753 1863 
L 3688 0 
L 2938 0 
L 1159 1709 
L 1159 0 
L 581 0 
L 581 4863 
z
" transform="scale(0.015625)"/>
       <path id="DejaVuSans-56" d="M 1831 0 
L 50 4666 
L 709 4666 
L 2188 738 
L 3669 4666 
L 4325 4666 
L 2547 0 
L 1831 0 
z
" transform="scale(0.015625)"/>
       <path id="DejaVuSans-29" d="M 513 4856 
L 1013 4856 
Q 1481 4119 1714 3412 
Q 1947 2706 1947 2009 
Q 1947 1309 1714 600 
Q 1481 -109 1013 -844 
L 513 -844 
Q 928 -128 1133 580 
Q 1338 1288 1338 2009 
Q 1338 2731 1133 3434 
Q 928 4138 513 4856 
z
" transform="scale(0.015625)"/>
      </defs>
      <use xlink:href="#DejaVuSans-45"/>
      <use xlink:href="#DejaVuSans-6e" x="63.183594"/>
      <use xlink:href="#DejaVuSans-65" x="126.5625"/>
      <use xlink:href="#DejaVuSans-72" x="188.085938"/>
      <use xlink:href="#DejaVuSans-67" x="227.449219"/>
      <use xlink:href="#DejaVuSans-79" x="290.925781"/>
      <use xlink:href="#DejaVuSans-20" x="350.105469"/>
      <use xlink:href="#DejaVuSans-28" x="381.892578"/>
      <use xlink:href="#DejaVuSans-6b" x="420.90625"/>
      <use xlink:href="#DejaVuSans-65" x="475.191406"/>
      <use xlink:href="#DejaVuSans-56" x="536.714844"/>
      <use xlink:href="#DejaVuSans-29" x="605.123047"/>
     </g>
    </g>
   </g>
   <g id="matplotlib.axis_2">
    <g id="text_11">
     <!-- Counts -->
     <g transform="translate(51.520313 191.981125) rotate(-90) scale(0.1 -0.1)">
      <defs>
       <path id="DejaVuSans-43" d="M 4122 4306 
L 4122 3641 
Q 3803 3938 3442 4084 
Q 3081 4231 2675 4231 
Q 1875 4231 1450 3742 
Q 1025 3253 1025 2328 
Q 1025 1406 1450 917 
Q 1875 428 2675 428 
Q 3081 428 3442 575 
Q 3803 722 4122 1019 
L 4122 359 
Q 3791 134 3420 21 
Q 3050 -91 2638 -91 
Q 1578 -91 968 557 
Q 359 1206 359 2328 
Q 359 3453 968 4101 
Q 1578 4750 2638 4750 
Q 3056 4750 3426 4639 
Q 3797 4528 4122 4306 
z
" transform="scale(0.015625)"/>
       <path id="DejaVuSans-6f" d="M 1959 3097 
Q 1497 3097 1228 2736 
Q 959 2375 959 1747 
Q 959 1119 1226 758 
Q 1494 397 1959 397 
Q 2419 397 2687 759 
Q 2956 1122 2956 1747 
Q 2956 2369 2687 2733 
Q 2419 3097 1959 3097 
z
M 1959 3584 
Q 2709 3584 3137 3096 
Q 3566 2609 3566 1747 
Q 3566 888 3137 398 
Q 2709 -91 1959 -91 
Q 1206 -91 779 398 
Q 353 888 353 1747 
Q 353 2609 779 3096 
Q 1206 3584 1959 3584 
z
" transform="scale(0.015625)"/>
       <path id="DejaVuSans-75" d="M 544 1381 
L 544 3500 
L 1119 3500 
L 1119 1403 
Q 1119 906 1312 657 
Q 1506 409 1894 409 
Q 2359 409 2629 706 
Q 2900 1003 2900 1516 
L 2900 3500 
L 3475 3500 
L 3475 0 
L 2900 0 
L 2900 538 
Q 2691 219 2414 64 
Q 2138 -91 1772 -91 
Q 1169 -91 856 284 
Q 544 659 544 1381 
z
M 1991 3584 
L 1991 3584 
z
" transform="scale(0.015625)"/>
       <path id="DejaVuSans-74" d="M 1172 4494 
L 1172 3500 
L 2356 3500 
L 2356 3053 
L 1172 3053 
L 1172 1153 
Q 1172 725 1289 603 
Q 1406 481 1766 481 
L 2356 481 
L 2356 0 
L 1766 0 
Q 1100 0 847 248 
Q 594 497 594 1153 
L 594 3053 
L 172 3053 
L 172 3500 
L 594 3500 
L 594 4494 
L 1172 4494 
z
" transform="scale(0.015625)"/>
       <path id="DejaVuSans-73" d="M 2834 3397 
L 2834 2853 
Q 2591 2978 2328 3040 
Q 2066 3103 1784 3103 
Q 1356 3103 1142 2972 
Q 928 2841 928 2578 
Q 928 2378 1081 2264 
Q 1234 2150 1697 2047 
L 1894 2003 
Q 2506 1872 2764 1633 
Q 3022 1394 3022 966 
Q 3022 478 2636 193 
Q 2250 -91 1575 -91 
Q 1294 -91 989 -36 
Q 684 19 347 128 
L 347 722 
Q 666 556 975 473 
Q 1284 391 1588 391 
Q 1994 391 2212 530 
Q 2431 669 2431 922 
Q 2431 1156 2273 1281 
Q 2116 1406 1581 1522 
L 1381 1569 
Q 847 1681 609 1914 
Q 372 2147 372 2553 
Q 372 3047 722 3315 
Q 1072 3584 1716 3584 
Q 2034 3584 2315 3537 
Q 2597 3491 2834 3397 
z
" transform="scale(0.015625)"/>
      </defs>
      <use xlink:href="#DejaVuSans-43"/>
      <use xlink:href="#DejaVuSans-6f" x="69.824219"/>
      <use xlink:href="#DejaVuSans-75" x="131.005859"/>
      <use xlink:href="#DejaVuSans-6e" x="194.384766"/>
      <use xlink:href="#DejaVuSans-74" x="257.763672"/>
      <use xlink:href="#DejaVuSans-73" x="296.972656"/>
     </g>
    </g>
   </g>
   <g id="line2d_10">
    <path d="M 57.599107 283.63702 
L 59.032966 293.908844 
L 60.466824 264.406855 
L 61.900682 169.251775 
L 63.33454 282.912227 
L 64.768399 284.919227 
L 66.202257 279.989249 
L 67.636115 291.979745 
L 69.069974 293.108062 
L 70.503832 293.735452 
L 71.93769 294.062493 
L 73.371549 293.027673 
L 74.805407 294.119225 
L 76.239265 294.491671 
L 79.106982 294.703417 
L 81.974699 294.805971 
L 83.408557 294.354009 
L 84.842415 294.779202 
L 86.276273 294.938372 
L 87.710132 294.815564 
L 89.14399 294.834151 
L 90.577848 293.892717 
L 92.011707 293.410257 
L 93.445565 294.455417 
L 94.879423 294.901179 
L 96.313282 294.92972 
L 97.74714 294.552833 
L 99.180998 294.66227 
L 100.614857 295.005029 
L 102.048715 294.957149 
L 103.482573 293.615133 
L 104.916432 294.0018 
L 106.35029 294.923803 
L 107.784148 294.934413 
L 109.218006 295.135425 
L 113.519581 295.254316 
L 132.159739 295.323885 
L 198.117222 295.357527 
L 199.55108 295.125707 
L 200.984939 294.572751 
L 202.418797 294.725846 
L 203.852655 295.180567 
L 206.720372 295.366997 
L 212.455805 295.411877 
L 213.889663 295.371482 
L 216.75738 294.826008 
L 218.191238 294.985212 
L 219.625097 295.268751 
L 222.492813 295.392132 
L 232.529821 295.439707 
L 241.132971 295.342459 
L 244.000688 295.261402 
L 249.736121 295.398771 
L 258.339271 295.449017 
L 348.672345 295.478404 
L 414.629827 295.486694 
L 414.629827 295.486694 
" clip-path="url(#pa096c879e2)" style="fill: none; stroke: #000000; stroke-linecap: square"/>
   </g>
   <g id="line2d_11">
    <path d="M 57.599107 267.481139 
L 59.032966 277.787208 
L 60.466824 249.036785 
L 61.900682 155.929384 
L 63.33454 266.149483 
L 64.768399 268.84347 
L 66.202257 264.006072 
L 67.636115 275.800117 
L 69.069974 276.924432 
L 70.503832 277.560138 
L 71.93769 277.831801 
L 73.371549 276.332571 
L 74.805407 277.791145 
L 76.239265 278.287644 
L 79.106982 278.526473 
L 81.974699 278.633924 
L 83.408557 278.140461 
L 84.842415 278.598541 
L 86.276273 278.766562 
L 89.14399 278.662692 
L 90.577848 277.599449 
L 92.011707 277.070388 
L 93.445565 278.260017 
L 94.879423 278.726152 
L 96.313282 278.72234 
L 97.74714 278.037358 
L 99.180998 278.201447 
L 100.614857 278.769923 
L 102.048715 278.743064 
L 103.482573 277.371979 
L 104.916432 277.78659 
L 106.35029 278.75564 
L 107.784148 278.770206 
L 109.218006 278.976521 
L 113.519581 279.096805 
L 127.858165 279.148927 
L 169.440056 279.217214 
L 172.307772 279.082724 
L 175.175489 279.222433 
L 188.080214 279.253375 
L 198.117222 279.19796 
L 199.55108 278.896845 
L 200.984939 278.1895 
L 202.418797 278.386091 
L 203.852655 278.967062 
L 206.720372 279.202543 
L 211.021947 279.263648 
L 213.889663 279.215205 
L 216.75738 278.592225 
L 218.191238 278.771484 
L 219.625097 279.100195 
L 222.492813 279.236065 
L 229.662105 279.286548 
L 239.699113 279.245315 
L 244.000688 279.089336 
L 249.736121 279.24616 
L 259.773129 279.301377 
L 322.862895 279.322927 
L 367.312503 279.325381 
L 380.217228 279.337496 
L 414.629827 279.339572 
L 414.629827 279.339572 
" clip-path="url(#pa096c879e2)" style="fill: none; stroke: #4300a2; stroke-linecap: square"/>
   </g>
   <g id="line2d_12">
    <path d="M 57.599107 251.293429 
L 59.032966 261.618902 
L 60.466824 232.410305 
L 61.900682 138.949679 
L 63.33454 249.916415 
L 64.768399 252.924606 
L 66.202257 248.280155 
L 67.636115 259.737972 
L 69.069974 260.868665 
L 70.503832 261.46106 
L 71.93769 261.72556 
L 73.371549 260.288223 
L 74.805407 261.688833 
L 76.239265 262.161008 
L 80.54084 262.507572 
L 81.974699 262.502095 
L 83.408557 262.022617 
L 84.842415 262.470031 
L 86.276273 262.635503 
L 89.14399 262.570315 
L 90.577848 261.54832 
L 92.011707 261.019628 
L 93.445565 262.090444 
L 94.879423 262.590243 
L 96.313282 262.595902 
L 97.74714 262.010665 
L 99.180998 262.159312 
L 100.614857 262.659547 
L 102.048715 262.624382 
L 103.482573 261.195156 
L 104.916432 261.612393 
L 106.35029 262.611656 
L 107.784148 262.622176 
L 109.218006 262.830456 
L 112.085723 262.934586 
L 122.122731 262.999396 
L 130.725881 263.022683 
L 169.440056 263.077443 
L 172.307772 262.97084 
L 176.609347 263.092884 
L 198.117222 263.057528 
L 199.55108 262.76418 
L 200.984939 262.084739 
L 202.418797 262.274491 
L 203.852655 262.834139 
L 206.720372 263.063285 
L 212.455805 263.11565 
L 213.889663 263.072001 
L 216.75738 262.481921 
L 218.191238 262.653372 
L 219.625097 262.966326 
L 222.492813 263.094835 
L 231.095963 263.145667 
L 241.132971 263.043012 
L 242.56683 262.943999 
L 274.111713 263.134224 
L 308.524312 263.175041 
L 345.804628 263.184941 
L 414.629827 263.193571 
L 414.629827 263.193571 
" clip-path="url(#pa096c879e2)" style="fill: none; stroke: #007add; stroke-linecap: square"/>
   </g>
   <g id="line2d_13">
    <path d="M 57.599107 235.638247 
L 59.032966 245.468496 
L 60.466824 215.582065 
L 61.900682 123.220218 
L 63.33454 232.90581 
L 64.768399 236.657661 
L 66.202257 227.863571 
L 67.636115 242.89266 
L 69.069974 244.309477 
L 70.503832 245.005755 
L 71.93769 245.411122 
L 73.371549 243.513972 
L 74.805407 245.303412 
L 76.239265 245.916702 
L 79.106982 246.19137 
L 81.974699 246.306881 
L 83.408557 245.767323 
L 84.842415 246.249003 
L 86.276273 246.424176 
L 87.710132 246.208339 
L 89.14399 246.270677 
L 90.577848 245.293059 
L 92.011707 244.081724 
L 93.445565 244.421121 
L 94.879423 246.107696 
L 96.313282 246.31273 
L 99.180998 246.514346 
L 100.614857 246.617287 
L 102.048715 246.552805 
L 103.482573 245.339706 
L 104.916432 245.687955 
L 106.35029 246.497931 
L 107.784148 246.511012 
L 110.651865 246.756544 
L 122.122731 246.816531 
L 150.799898 246.909313 
L 170.873914 246.843759 
L 172.307772 246.800774 
L 175.175489 246.925291 
L 198.117222 246.894806 
L 199.55108 246.545323 
L 200.984939 245.744238 
L 202.418797 245.923171 
L 203.852655 246.622006 
L 205.286513 246.820193 
L 209.588088 246.964342 
L 213.889663 246.90857 
L 215.323522 246.657718 
L 216.75738 246.278837 
L 218.191238 246.467733 
L 219.625097 246.793804 
L 222.492813 246.945911 
L 232.529821 246.990719 
L 241.132971 246.886319 
L 244.000688 246.810438 
L 249.736121 246.955328 
L 258.339271 247.006682 
L 308.524312 247.026738 
L 368.746361 247.018738 
L 380.217228 247.04075 
L 414.629827 247.045512 
L 414.629827 247.045512 
" clip-path="url(#pa096c879e2)" style="fill: none; stroke: #00aa93; stroke-linecap: square"/>
   </g>
   <g id="line2d_14">
    <path d="M 57.599107 219.157229 
L 59.032966 229.267513 
L 60.466824 198.484555 
L 61.900682 101.726047 
L 63.33454 218.97237 
L 64.768399 220.144267 
L 66.202257 215.328789 
L 67.636115 227.390357 
L 69.069974 228.484181 
L 70.503832 229.143119 
L 71.93769 229.550922 
L 73.371549 228.979411 
L 74.805407 229.711138 
L 76.239265 229.964667 
L 80.54084 230.246355 
L 81.974699 230.237512 
L 83.408557 229.819987 
L 84.842415 230.222203 
L 86.276273 230.372876 
L 89.14399 230.305074 
L 90.577848 229.474888 
L 92.011707 228.984454 
L 93.445565 229.78399 
L 94.879423 230.309202 
L 96.313282 230.380419 
L 99.180998 230.404724 
L 100.614857 230.511684 
L 102.048715 230.460811 
L 103.482573 229.386366 
L 104.916432 229.67729 
L 106.35029 230.403377 
L 107.784148 230.416227 
L 110.651865 230.640481 
L 140.762889 230.756744 
L 169.440056 230.780242 
L 172.307772 230.580153 
L 175.175489 230.775057 
L 180.910922 230.782777 
L 198.117222 230.783639 
L 199.55108 230.60832 
L 200.984939 230.201595 
L 202.418797 230.327371 
L 203.852655 230.650364 
L 206.720372 230.795207 
L 212.455805 230.829834 
L 213.889663 230.796469 
L 216.75738 230.33866 
L 218.191238 230.466328 
L 219.625097 230.710394 
L 223.926672 230.831631 
L 238.265255 230.83946 
L 248.302263 230.774941 
L 254.037696 230.85615 
L 335.76762 230.887375 
L 414.629827 230.900013 
L 414.629827 230.900013 
" clip-path="url(#pa096c879e2)" style="fill: none; stroke: #00c400; stroke-linecap: square"/>
   </g>
   <g id="line2d_15">
    <path d="M 57.599107 203.432148 
L 59.032966 213.208375 
L 60.466824 184.254619 
L 61.900682 93.76001 
L 63.33454 200.287769 
L 64.768399 204.615587 
L 66.202257 198.752292 
L 67.636115 210.857328 
L 69.069974 211.980749 
L 70.503832 212.665994 
L 71.93769 213.002175 
L 73.371549 210.815128 
L 74.805407 212.813729 
L 76.239265 213.491015 
L 80.54084 213.936915 
L 81.974699 213.922564 
L 83.408557 213.212847 
L 84.842415 213.819701 
L 86.276273 214.052308 
L 89.14399 213.894812 
L 90.577848 211.829181 
L 92.011707 210.80844 
L 93.445565 213.024214 
L 94.879423 213.902766 
L 97.74714 213.983201 
L 100.614857 214.239275 
L 102.048715 214.168994 
L 103.482573 212.790753 
L 104.916432 213.189021 
L 106.35029 214.11686 
L 107.784148 214.135231 
L 110.651865 214.41465 
L 122.122731 214.496722 
L 135.027456 214.546859 
L 169.440056 214.600742 
L 172.307772 214.338245 
L 175.175489 214.590559 
L 189.514072 214.65273 
L 198.117222 214.552452 
L 199.55108 214.161255 
L 200.984939 213.20884 
L 202.418797 213.438734 
L 203.852655 214.25747 
L 205.286513 214.484869 
L 208.15423 214.630121 
L 212.455805 214.647491 
L 213.889663 214.556432 
L 215.323522 214.097007 
L 216.75738 213.450311 
L 218.191238 213.772801 
L 219.625097 214.352806 
L 222.492813 214.602725 
L 228.228246 214.67518 
L 238.265255 214.6544 
L 241.132971 214.480619 
L 242.56683 214.287982 
L 248.302263 214.498307 
L 251.169979 214.658034 
L 265.508563 214.705696 
L 414.629827 214.748898 
L 414.629827 214.748898 
" clip-path="url(#pa096c879e2)" style="fill: none; stroke: #a1ff00; stroke-linecap: square"/>
   </g>
   <g id="line2d_16">
    <path d="M 57.599107 187.157728 
L 59.032966 197.014158 
L 60.466824 166.602271 
L 61.900682 73.08674 
L 63.33454 186.540683 
L 64.768399 188.66373 
L 66.202257 182.021476 
L 67.636115 194.796738 
L 69.069974 195.866736 
L 70.503832 196.619517 
L 71.93769 197.072996 
L 73.371549 196.135911 
L 74.805407 197.178151 
L 76.239265 197.559722 
L 80.54084 197.835052 
L 81.974699 197.856296 
L 83.408557 197.28901 
L 84.842415 197.781634 
L 86.276273 197.966724 
L 87.710132 197.737343 
L 89.14399 197.77106 
L 90.577848 196.334186 
L 92.011707 195.513198 
L 93.445565 197.072589 
L 94.879423 197.84116 
L 102.048715 198.049287 
L 103.482573 196.468209 
L 104.916432 196.916407 
L 106.35029 197.964862 
L 107.784148 197.980946 
L 110.651865 198.301176 
L 120.688873 198.375167 
L 132.159739 198.414763 
L 152.233756 198.455641 
L 159.403047 198.477527 
L 169.440056 198.458965 
L 172.307772 198.174523 
L 173.741631 198.376731 
L 176.609347 198.474543 
L 189.514072 198.513195 
L 198.117222 198.452152 
L 199.55108 198.231003 
L 200.984939 197.69219 
L 202.418797 197.813455 
L 203.852655 198.286109 
L 206.720372 198.470666 
L 212.455805 198.51531 
L 213.889663 198.451935 
L 215.323522 198.128916 
L 216.75738 197.666322 
L 218.191238 197.892682 
L 219.625097 198.301663 
L 222.492813 198.489193 
L 229.662105 198.541372 
L 239.699113 198.489731 
L 244.000688 198.28296 
L 246.868405 198.361097 
L 254.037696 198.54532 
L 271.243996 198.559518 
L 278.413287 198.555279 
L 414.629827 198.603542 
L 414.629827 198.603542 
" clip-path="url(#pa096c879e2)" style="fill: none; stroke: #ffb500; stroke-linecap: square"/>
   </g>
   <g id="line2d_17">
    <path d="M 57.599107 170.793829 
L 59.032966 180.84245 
L 60.466824 149.840776 
L 61.900682 53.568 
L 63.33454 170.892723 
L 64.768399 172.406691 
L 66.202257 166.159286 
L 67.636115 178.896946 
L 69.069974 180.024397 
L 70.503832 180.672549 
L 71.93769 181.084933 
L 73.371549 180.429835 
L 74.805407 181.220842 
L 76.239265 181.514681 
L 79.106982 181.69664 
L 81.974699 181.78813 
L 83.408557 181.355656 
L 84.842415 181.75406 
L 86.276273 181.90717 
L 87.710132 181.643845 
L 89.14399 181.742032 
L 90.577848 180.852786 
L 92.011707 180.322732 
L 93.445565 181.332439 
L 94.879423 181.858844 
L 100.614857 182.058583 
L 102.048715 181.993573 
L 103.482573 180.831785 
L 104.916432 181.174214 
L 106.35029 181.941316 
L 107.784148 181.949071 
L 110.651865 182.18663 
L 124.990448 182.272396 
L 198.117222 182.33577 
L 199.55108 182.165321 
L 200.984939 181.74489 
L 202.418797 181.839127 
L 203.852655 182.210141 
L 206.720372 182.350673 
L 212.455805 182.38241 
L 213.889663 182.3401 
L 216.75738 181.814063 
L 222.492813 182.369302 
L 233.96368 182.408917 
L 241.132971 182.313113 
L 244.000688 182.240708 
L 249.736121 182.371602 
L 258.339271 182.42485 
L 301.35502 182.439816 
L 414.629827 182.457434 
L 414.629827 182.457434 
" clip-path="url(#pa096c879e2)" style="fill: none; stroke: #dc0000; stroke-linecap: square"/>
   </g>
   <g id="patch_3">
    <path d="M 57.6 307.584 
L 57.6 41.472 
" style="fill: none; stroke: #000000; stroke-width: 0.8; stroke-linejoin: miter; stroke-linecap: square"/>
   </g>
   <g id="patch_4">
    <path d="M 57.6 307.584 
L 414.72 307.584 
" style="fill: none; stroke: #000000; stroke-width: 0.8; stroke-linejoin: miter; stroke-linecap: square"/>
   </g>
  </g>
 </g>
 <defs>
  <clipPath id="pa096c879e2">
   <rect x="57.6" y="41.472" width="357.12" height="266.112"/>
  </clipPath>
 </defs>
</svg>
