<?xml version="1.0" encoding="utf-8" standalone="no"?>
<!DOCTYPE svg PUBLIC "-//W3C//DTD SVG 1.1//EN"
  "http://www.w3.org/Graphics/SVG/1.1/DTD/svg11.dtd">
<svg xmlns:xlink="http://www.w3.org/1999/xlink" width="460.8pt" height="345.6pt" viewBox="0 0 460.8 345.6" xmlns="http://www.w3.org/2000/svg" version="1.1">
 <metadata>
  <rdf:RDF xmlns:dc="http://purl.org/dc/elements/1.1/" xmlns:cc="http://creativecommons.org/ns#" xmlns:rdf="http://www.w3.org/1999/02/22-rdf-syntax-ns#">
   <cc:Work>
    <dc:type rdf:resource="http://purl.org/dc/dcmitype/StillImage"/>
    <dc:date>2023-09-01T12:04:48.675971</dc:date>
    <dc:format>image/svg+xml</dc:format>
    <dc:creator>
     <cc:Agent>
      <dc:title>Matplotlib v3.6.2, https://matplotlib.org/</dc:title>
     </cc:Agent>
    </dc:creator>
   </cc:Work>
  </rdf:RDF>
 </metadata>
 <defs>
  <style type="text/css">*{stroke-linejoin: round; stroke-linecap: butt}</style>
 </defs>
 <g id="figure_1">
  <g id="patch_1">
   <path d="M 0 345.6 
L 460.8 345.6 
L 460.8 0 
L 0 0 
z
" style="fill: #ffffff"/>
  </g>
  <g id="axes_1">
   <g id="patch_2">
    <path d="M 57.6 307.584 
L 414.72 307.584 
L 414.72 41.472 
L 57.6 41.472 
z
" style="fill: #ffffff"/>
   </g>
   <g id="matplotlib.axis_1">
    <g id="xtick_1">
     <g id="line2d_1">
      <defs>
       <path id="m2e225399d5" d="M 0 0 
L 0 3.5 
" style="stroke: #000000; stroke-width: 0.8"/>
      </defs>
      <g>
       <use xlink:href="#m2e225399d5" x="57.6" y="307.584" style="stroke: #000000; stroke-width: 0.8"/>
      </g>
     </g>
     <g id="text_1">
      <text style="font: 7px 'Helvetica'; text-anchor: middle" x="57.6" y="319.902906" transform="rotate(-0 57.6 319.902906)">0.0</text>
     </g>
    </g>
    <g id="xtick_2">
     <g id="line2d_2">
      <g>
       <use xlink:href="#m2e225399d5" x="102.24" y="307.584" style="stroke: #000000; stroke-width: 0.8"/>
      </g>
     </g>
     <g id="text_2">
      <text style="font: 7px 'Helvetica'; text-anchor: middle" x="102.24" y="319.902906" transform="rotate(-0 102.24 319.902906)">2.5</text>
     </g>
    </g>
    <g id="xtick_3">
     <g id="line2d_3">
      <g>
       <use xlink:href="#m2e225399d5" x="146.88" y="307.584" style="stroke: #000000; stroke-width: 0.8"/>
      </g>
     </g>
     <g id="text_3">
      <text style="font: 7px 'Helvetica'; text-anchor: middle" x="146.88" y="319.902906" transform="rotate(-0 146.88 319.902906)">5.0</text>
     </g>
    </g>
    <g id="xtick_4">
     <g id="line2d_4">
      <g>
       <use xlink:href="#m2e225399d5" x="191.52" y="307.584" style="stroke: #000000; stroke-width: 0.8"/>
      </g>
     </g>
     <g id="text_4">
      <text style="font: 7px 'Helvetica'; text-anchor: middle" x="191.52" y="319.902906" transform="rotate(-0 191.52 319.902906)">7.5</text>
     </g>
    </g>
    <g id="xtick_5">
     <g id="line2d_5">
      <g>
       <use xlink:href="#m2e225399d5" x="236.16" y="307.584" style="stroke: #000000; stroke-width: 0.8"/>
      </g>
     </g>
     <g id="text_5">
      <text style="font: 7px 'Helvetica'; text-anchor: middle" x="236.16" y="319.902906" transform="rotate(-0 236.16 319.902906)">10.0</text>
     </g>
    </g>
    <g id="xtick_6">
     <g id="line2d_6">
      <g>
       <use xlink:href="#m2e225399d5" x="280.8" y="307.584" style="stroke: #000000; stroke-width: 0.8"/>
      </g>
     </g>
     <g id="text_6">
      <text style="font: 7px 'Helvetica'; text-anchor: middle" x="280.8" y="319.902906" transform="rotate(-0 280.8 319.902906)">12.5</text>
     </g>
    </g>
    <g id="xtick_7">
     <g id="line2d_7">
      <g>
       <use xlink:href="#m2e225399d5" x="325.44" y="307.584" style="stroke: #000000; stroke-width: 0.8"/>
      </g>
     </g>
     <g id="text_7">
      <text style="font: 7px 'Helvetica'; text-anchor: middle" x="325.44" y="319.902906" transform="rotate(-0 325.44 319.902906)">15.0</text>
     </g>
    </g>
    <g id="xtick_8">
     <g id="line2d_8">
      <g>
       <use xlink:href="#m2e225399d5" x="370.08" y="307.584" style="stroke: #000000; stroke-width: 0.8"/>
      </g>
     </g>
     <g id="text_8">
      <text style="font: 7px 'Helvetica'; text-anchor: middle" x="370.08" y="319.902906" transform="rotate(-0 370.08 319.902906)">17.5</text>
     </g>
    </g>
    <g id="xtick_9">
     <g id="line2d_9">
      <g>
       <use xlink:href="#m2e225399d5" x="414.72" y="307.584" style="stroke: #000000; stroke-width: 0.8"/>
      </g>
     </g>
     <g id="text_9">
      <text style="font: 7px 'Helvetica'; text-anchor: middle" x="414.72" y="319.902906" transform="rotate(-0 414.72 319.902906)">20.0</text>
     </g>
    </g>
    <g id="text_10">
     <text style="font: 10px 'Helvetica'; text-anchor: middle" x="236.16" y="332.957125" transform="rotate(-0 236.16 332.957125)">Energy (keV)</text>
    </g>
   </g>
   <g id="matplotlib.axis_2">
    <g id="text_11">
     <text style="font: 10px 'Helvetica'; text-anchor: middle" x="48.020313" y="174.528" transform="rotate(-90 48.020313 174.528)">Counts</text>
    </g>
   </g>
   <g id="line2d_10">
    <path d="M 58.268707 284.356156 
L 59.697187 293.976333 
L 61.125667 265.803543 
L 62.554147 177.28053 
L 63.982627 280.823639 
L 65.411107 285.332124 
L 66.839587 279.854162 
L 68.268067 291.614465 
L 69.696547 292.703444 
L 71.125027 293.387254 
L 72.553507 293.710772 
L 73.981987 291.382276 
L 75.410467 293.489315 
L 76.838947 294.197596 
L 81.124387 294.669621 
L 82.552867 294.64395 
L 83.981347 293.896348 
L 85.409827 294.533706 
L 86.838307 294.777967 
L 89.695267 294.629369 
L 91.123747 292.376675 
L 92.552227 291.289315 
L 93.980707 293.690088 
L 95.409187 294.608166 
L 98.266147 294.697097 
L 101.123107 294.963192 
L 102.551587 294.895416 
L 103.980067 293.52952 
L 105.408547 293.92254 
L 106.837027 294.846769 
L 108.265507 294.867095 
L 111.122467 295.145086 
L 123.978787 295.24652 
L 141.120547 295.302329 
L 158.262307 295.334187 
L 169.690147 295.332373 
L 172.547107 295.040194 
L 175.404067 295.319921 
L 186.831907 295.368497 
L 196.831267 295.33364 
L 198.259747 295.279425 
L 199.688227 294.866683 
L 201.116707 293.860411 
L 202.545187 294.109691 
L 203.973667 294.968847 
L 205.402147 295.208821 
L 208.259107 295.362285 
L 212.544547 295.38129 
L 213.973027 295.283928 
L 215.401507 294.785207 
L 216.829987 294.096878 
L 218.258467 294.440362 
L 219.686947 295.065457 
L 222.543907 295.330609 
L 228.257827 295.410089 
L 238.257187 295.386708 
L 241.114147 295.199226 
L 242.542627 294.990427 
L 248.256547 295.217003 
L 251.113507 295.389523 
L 263.969827 295.437371 
L 313.966627 295.465334 
L 378.248227 295.480902 
L 413.960227 295.485338 
L 413.960227 295.485338 
" clip-path="url(#padee2b6dfe)" style="fill: none; stroke: #000000; stroke-linecap: square"/>
   </g>
   <g id="line2d_11">
    <path d="M 58.268707 261.618765 
L 59.697187 271.996559 
L 61.125667 244.20687 
L 62.554147 152.893382 
L 63.982627 260.137135 
L 65.411107 263.689687 
L 66.839587 258.42956 
L 68.268067 270.003262 
L 69.696547 271.125262 
L 71.125027 271.752195 
L 72.553507 271.985207 
L 73.981987 270.294855 
L 75.410467 271.892298 
L 76.838947 272.450089 
L 81.124387 272.782337 
L 82.552867 272.796165 
L 83.981347 272.287676 
L 85.409827 272.747303 
L 86.838307 272.912528 
L 89.695267 272.796706 
L 91.123747 271.730902 
L 92.552227 271.181438 
L 93.980707 272.413296 
L 95.409187 272.889788 
L 96.837667 272.851113 
L 98.266147 271.933576 
L 99.694627 272.140263 
L 101.123107 272.876781 
L 102.551587 272.874762 
L 103.980067 271.62263 
L 105.408547 272.026495 
L 106.837027 272.938264 
L 108.265507 272.953155 
L 109.693987 273.140519 
L 113.979427 273.252158 
L 135.406627 273.332303 
L 198.259747 273.351634 
L 199.688227 273.028249 
L 201.116707 272.266292 
L 202.545187 272.463038 
L 203.973667 273.104002 
L 205.402147 273.285425 
L 209.687587 273.419189 
L 213.973027 273.367275 
L 216.829987 272.723178 
L 218.258467 272.91046 
L 219.686947 273.25058 
L 222.543907 273.392918 
L 229.686307 273.441308 
L 239.685667 273.398676 
L 243.971107 273.242435 
L 249.685027 273.404408 
L 259.684387 273.454489 
L 323.965987 273.480366 
L 413.960227 273.495459 
L 413.960227 273.495459 
" clip-path="url(#padee2b6dfe)" style="fill: none; stroke: #0000c9; stroke-linecap: square"/>
   </g>
   <g id="line2d_12">
    <path d="M 58.268707 240.28909 
L 59.697187 249.948633 
L 61.125667 220.583522 
L 62.554147 129.789662 
L 63.982627 237.308926 
L 65.411107 241.150823 
L 66.839587 232.693932 
L 68.268067 247.286445 
L 69.696547 248.662726 
L 71.125027 249.429812 
L 72.553507 249.860768 
L 73.981987 247.996596 
L 75.410467 249.775151 
L 76.838947 250.385339 
L 81.124387 250.756543 
L 82.552867 250.764036 
L 83.981347 250.219368 
L 85.409827 250.700867 
L 86.838307 250.8694 
L 88.266787 250.748824 
L 89.695267 250.751184 
L 91.123747 249.776634 
L 92.552227 248.580082 
L 93.980707 248.903928 
L 95.409187 250.564748 
L 96.837667 250.752682 
L 99.694627 250.977271 
L 101.123107 251.074221 
L 102.551587 251.013712 
L 103.980067 249.801849 
L 105.408547 250.132441 
L 106.837027 250.954108 
L 108.265507 250.975166 
L 111.122467 251.223984 
L 122.550307 251.286112 
L 141.120547 251.336626 
L 151.119907 251.366443 
L 159.690787 251.374939 
L 169.690147 251.369869 
L 172.547107 251.173068 
L 175.404067 251.378721 
L 198.259747 251.353607 
L 199.688227 250.997767 
L 201.116707 250.200363 
L 202.545187 250.387339 
L 203.973667 251.068484 
L 205.402147 251.276948 
L 209.687587 251.41766 
L 213.973027 251.370552 
L 216.829987 250.751866 
L 218.258467 250.92326 
L 219.686947 251.260236 
L 222.543907 251.400365 
L 231.114787 251.447848 
L 241.114147 251.345137 
L 243.971107 251.265267 
L 251.113507 251.436007 
L 272.540707 251.450252 
L 278.254627 251.457749 
L 413.960227 251.50326 
L 413.960227 251.50326 
" clip-path="url(#padee2b6dfe)" style="fill: none; stroke: #00aaa3; stroke-linecap: square"/>
   </g>
   <g id="line2d_13">
    <path d="M 58.268707 218.088643 
L 59.697187 227.924614 
L 61.125667 197.767118 
L 62.554147 104.593622 
L 63.982627 217.386409 
L 65.411107 219.594101 
L 66.839587 213.60925 
L 68.268067 225.849314 
L 69.696547 226.933315 
L 71.125027 227.636465 
L 72.553507 228.065138 
L 73.981987 227.257266 
L 75.410467 228.185612 
L 76.838947 228.519135 
L 81.124387 228.793732 
L 82.552867 228.803996 
L 83.981347 228.294083 
L 85.409827 228.746685 
L 86.838307 228.915047 
L 88.266787 228.775169 
L 89.695267 228.779023 
L 91.123747 227.579049 
L 92.552227 226.873148 
L 93.980707 228.1205 
L 95.409187 228.815579 
L 101.123107 229.082956 
L 102.551587 228.998225 
L 103.980067 227.504706 
L 105.408547 227.915771 
L 106.837027 228.910137 
L 108.265507 228.923343 
L 111.122467 229.226602 
L 122.550307 229.29686 
L 138.263587 229.345947 
L 169.690147 229.376923 
L 172.547107 229.142542 
L 175.404067 229.376225 
L 189.688867 229.422043 
L 198.259747 229.372503 
L 199.688227 229.168439 
L 201.116707 228.683808 
L 202.545187 228.799944 
L 203.973667 229.217551 
L 206.830627 229.387603 
L 212.544547 229.427953 
L 213.973027 229.375567 
L 216.829987 228.716923 
L 218.258467 228.905299 
L 219.686947 229.251859 
L 222.543907 229.40675 
L 231.114787 229.454225 
L 239.685667 229.408185 
L 243.971107 229.23662 
L 249.685027 229.412469 
L 258.255907 229.467732 
L 413.960227 229.509272 
L 413.960227 229.509272 
" clip-path="url(#padee2b6dfe)" style="fill: none; stroke: #00d700; stroke-linecap: square"/>
   </g>
   <g id="line2d_14">
    <path d="M 58.268707 195.858127 
L 59.697187 205.849524 
L 61.125667 173.808856 
L 62.554147 75.804017 
L 63.982627 196.4709 
L 65.411107 197.278521 
L 66.839587 192.500026 
L 68.268067 204.264593 
L 69.696547 205.389156 
L 71.125027 205.974177 
L 72.553507 206.372337 
L 73.981987 206.207316 
L 75.410467 206.58655 
L 78.267427 206.835383 
L 82.552867 206.955983 
L 83.981347 206.702102 
L 85.409827 206.975998 
L 86.838307 207.077832 
L 88.266787 206.962849 
L 89.695267 207.037244 
L 92.552227 206.761947 
L 95.409187 207.148743 
L 101.123107 207.217494 
L 102.551587 207.212016 
L 103.980067 206.832886 
L 105.408547 206.950855 
L 106.837027 207.210991 
L 169.690147 207.429381 
L 172.547107 207.35822 
L 178.261027 207.443712 
L 192.545827 207.447857 
L 198.259747 207.439918 
L 199.688227 207.331591 
L 201.116707 207.093795 
L 202.545187 207.167132 
L 203.973667 207.357699 
L 208.259107 207.45564 
L 213.973027 207.454396 
L 216.829987 207.301173 
L 223.972387 207.470452 
L 285.397027 207.500041 
L 356.821027 207.513528 
L 413.960227 207.518841 
L 413.960227 207.518841 
" clip-path="url(#padee2b6dfe)" style="fill: none; stroke: #f5df00; stroke-linecap: square"/>
   </g>
   <g id="line2d_15">
    <path d="M 58.268707 173.548121 
L 59.697187 183.941254 
L 61.125667 153.102754 
L 62.554147 53.568 
L 63.982627 174.578298 
L 65.411107 176.325221 
L 66.839587 170.432232 
L 68.268067 182.212234 
L 69.696547 183.354306 
L 71.125027 183.983585 
L 72.553507 184.387696 
L 73.981987 184.239627 
L 75.410467 184.602101 
L 76.838947 184.771355 
L 82.552867 184.974742 
L 83.981347 184.712854 
L 85.409827 184.967861 
L 86.838307 185.060448 
L 88.266787 184.909097 
L 89.695267 184.996766 
L 92.552227 184.786015 
L 95.409187 185.177973 
L 102.551587 185.230372 
L 103.980067 184.867639 
L 105.408547 184.976052 
L 106.837027 185.234795 
L 152.548387 185.416665 
L 155.405347 185.382827 
L 161.119267 185.437284 
L 185.403427 185.450759 
L 198.259747 185.450794 
L 199.688227 185.35632 
L 201.116707 185.133407 
L 202.545187 185.172245 
L 203.973667 185.372221 
L 208.259107 185.468548 
L 215.401507 185.407223 
L 216.829987 185.313287 
L 225.400867 185.478168 
L 321.109027 185.515201 
L 413.960227 185.525772 
L 413.960227 185.525772 
" clip-path="url(#padee2b6dfe)" style="fill: none; stroke: #dc0000; stroke-linecap: square"/>
   </g>
   <g id="patch_3">
    <path d="M 57.6 307.584 
L 57.6 41.472 
" style="fill: none; stroke: #000000; stroke-width: 0.8; stroke-linejoin: miter; stroke-linecap: square"/>
   </g>
   <g id="patch_4">
    <path d="M 57.6 307.584 
L 414.72 307.584 
" style="fill: none; stroke: #000000; stroke-width: 0.8; stroke-linejoin: miter; stroke-linecap: square"/>
   </g>
  </g>
 </g>
 <defs>
  <clipPath id="padee2b6dfe">
   <rect x="57.6" y="41.472" width="357.12" height="266.112"/>
  </clipPath>
 </defs>
</svg>
